<?xml version="1.0" encoding="UTF-8" standalone="no"?>
<svg width="246px" height="273px" viewBox="0 0 246 273" version="1.1" xmlns="http://www.w3.org/2000/svg" xmlns:xlink="http://www.w3.org/1999/xlink">
    <!-- Generator: Sketch 3.6.1 (26313) - http://www.bohemiancoding.com/sketch -->
    <title>engineer</title>
    <desc>Created with Sketch.</desc>
    <defs>
        <path id="path-1" d="M244.757166,242.754254 L0,242.754254 L0,1.56688402 L244.757166,1.56688402 L244.757166,242.754254 L244.757166,242.754254 Z"></path>
        <path id="path-3" d="M0,272.16023 L244.757341,272.16023 L244.757341,0 L0,0 L0,272.16023 Z"></path>
    </defs>
    <g id="Page-1" stroke="none" stroke-width="1" fill="none" fill-rule="evenodd">
        <g id="Desktop-HD" transform="translate(-608.000000, -375.000000)">
            <g id="engineer" transform="translate(608.907104, 375.627921)">
                <g id="Group-3" transform="translate(0.000000, 29.405976)">
                    <mask id="mask-2" fill="white">
                        <use xlink:href="#path-1"></use>
                    </mask>
                    <g id="Clip-2"></g>
                    <path d="M244.757166,122.164098 C244.757166,188.761404 189.968491,242.754426 122.378496,242.754426 C54.7902472,242.754426 -0.000174714355,188.761404 -0.000174714355,122.164098 C-0.000174714355,55.5599065 54.7902472,1.56688402 122.378496,1.56688402 C189.968491,1.56688402 244.757166,55.5599065 244.757166,122.164098" id="Fill-1" fill="#2E7D9D" mask="url(#mask-2)"></path>
                </g>
                <mask id="mask-4" fill="white">
                    <use xlink:href="#path-3"></use>
                </mask>
                <g id="Clip-5"></g>
                <path d="M107.402156,247.287389 L137.386633,247.287389 L137.386633,211.108396 L107.402156,211.108396 L107.402156,247.287389 Z" id="Fill-4" fill="#FDCC99" mask="url(#mask-4)"></path>
                <path d="M152.694232,237.118396 L92.0351546,237.128726 C76.1536197,242.779218 66.579273,247.525839 61.7169725,256.285652 C70.4457017,261.20616 79.8400926,265.095393 89.7463965,267.791515 C93.0764522,268.697109 96.4606692,269.46497 99.8973006,270.093376 C107.189878,271.429385 114.697354,272.161091 122.377797,272.161091 C130.054745,272.161091 137.553486,271.431107 144.837327,270.098541 C148.275706,269.470135 151.663417,268.702274 154.993473,267.794958 C164.905018,265.100558 174.306397,261.209603 183.038621,256.287373 C178.17632,247.522395 168.593238,242.774053 152.694232,237.118396" id="Fill-6" fill="#6D4A2B" mask="url(#mask-4)"></path>
                <path d="M145.531642,234.852001 C144.488597,234.320007 143.466518,233.781127 143.466518,233.781127 C143.466518,233.781127 137.168066,227.942973 137.386459,228.017005 C137.604852,228.092758 122.395967,237.405224 122.395967,237.405224 L107.401981,228.017005 L101.290473,233.97051 C101.290473,233.97051 100.310325,234.42675 99.2026363,234.91398 L99.162452,238.906513 L99.8979995,270.094409 C107.190577,271.428697 114.698053,272.160403 122.378496,272.160403 C130.055444,272.160403 137.554184,271.430418 144.838026,270.099574 L145.571826,238.906513 L145.531642,234.852001 Z" id="Fill-7" fill="#FEFEFE" mask="url(#mask-4)"></path>
                <path d="M99.2033352,234.914325 L99.2120709,234.034556 L92.8454798,236.169416 C92.6428111,236.178024 92.4593611,236.29854 92.3702567,236.477593 L92.0348052,237.128381 L82.4744356,255.715437 C82.3731013,255.918594 82.406297,256.164791 82.5600457,256.330071 L91.4652364,266.635936 L89.7460471,267.79117 C93.0761027,268.696764 96.4620669,269.464625 99.8969512,270.094753 L99.1631509,238.905136 L99.2033352,234.914325 Z" id="Fill-8" fill="#4B2E19" mask="url(#mask-4)"></path>
                <path d="M162.173883,256.330759 C162.327632,256.163758 162.360828,255.919282 162.26124,255.716126 L152.693882,237.11874 L152.365419,236.478282 C152.274568,236.297507 152.091118,236.178713 151.888449,236.170105 L145.521858,234.035244 L145.532341,234.851312 L145.572525,238.905824 L144.836978,270.098885 C148.275356,269.470479 151.663068,268.702618 154.99487,267.795302 L153.266945,266.634903 L162.173883,256.330759 Z" id="Fill-9" fill="#4B2E19" mask="url(#mask-4)"></path>
                <path d="M157.299353,159.781539 C155.346046,170.727862 161.93103,179.849224 172.022531,181.817083 C182.112285,183.779777 191.868335,177.84521 193.819894,166.893722 C195.774948,155.943956 189.18647,145.472811 179.098463,143.504952 C169.012203,141.542258 159.252659,148.828329 157.299353,159.781539" id="Fill-10" fill="#FDCC99" mask="url(#mask-4)"></path>
                <path d="M86.9153251,159.781539 C88.8703788,170.727862 82.2819004,179.849224 72.1921464,181.817083 C62.1041395,183.779777 52.3463428,177.84521 50.3947834,166.893722 C48.4397298,155.943956 55.0282081,145.472811 65.116215,143.504952 C75.2024747,141.542258 84.9620186,148.828329 86.9153251,159.781539" id="Fill-11" fill="#FDCC99" mask="url(#mask-4)"></path>
                <path d="M172.771008,87.444903 C163.285765,74.002171 147.56322,64.0922881 131.255383,63.4535517 C131.251888,63.4535517 130.935655,63.4432217 130.411512,63.4208401 L130.428984,62.7924337 C130.428984,62.7924337 126.475198,62.9473833 122.395618,63.1074978 C118.310796,62.9473833 114.355263,62.7924337 114.355263,62.7924337 L114.376229,63.4208401 C113.852086,63.4432217 113.534105,63.4535517 113.530611,63.4535517 C97.2227732,64.0922881 81.9003243,74.2862451 72.0167332,87.444903 C55.6459981,109.232528 62.9682767,157.986535 66.5097367,175.148055 C76.4003164,211.612843 99.4818299,217.841814 122.392123,217.841814 C145.305911,217.841814 169.206835,211.612843 178.276257,175.148055 C181.817717,159.859702 189.494666,111.147015 172.771008,87.444903" id="Fill-12" fill="#FDCC99" mask="url(#mask-4)"></path>
                <path d="M106.587812,252.635213 L100.198508,235.234382 C99.9801152,234.638687 100.291107,233.982734 100.893871,233.767526 C101.501877,233.552318 102.164045,233.863939 102.382438,234.452747 L107.643087,248.778692 L121.361658,237.453603 C121.849111,237.045569 122.584659,237.109271 122.998732,237.596501 C123.40931,238.080288 123.346413,238.803386 122.853719,239.209698 L106.587812,252.635213 Z" id="Fill-13" fill="#B0ADB2" mask="url(#mask-4)"></path>
                <path d="M137.616558,252.626777 L121.361134,239.20987 C120.868439,238.803558 120.805542,238.08046 121.217868,237.596673 C121.631941,237.107721 122.365741,237.045742 122.853194,237.453775 L136.583996,248.787472 L141.909289,234.630251 C142.131176,234.034556 142.800332,233.733265 143.40135,233.953638 C144.002367,234.17401 144.309864,234.835128 144.084483,235.423937 L137.616558,252.626777 Z" id="Fill-14" fill="#B0ADB2" mask="url(#mask-4)"></path>
                <path d="M79.8056739,140.712073 C79.2395994,140.712073 78.6717777,140.503752 78.2262561,140.090553 C77.3072586,139.231444 77.2705686,137.800744 78.1406461,136.893428 C80.6722571,134.264451 86.5479008,133.074783 91.2512113,133.059288 L91.3403156,133.059288 C94.3925754,133.059288 99.8698704,133.539632 102.944843,136.695437 C103.823656,137.597588 103.793955,139.026567 102.880199,139.890841 C101.964696,140.753393 100.516314,140.72929 99.6357532,139.825417 C98.2624984,138.417098 95.16656,137.582093 91.3438099,137.582093 L91.2651884,137.582093 C86.6422466,137.597588 82.5836321,138.850957 81.4707017,140.00447 C81.0164443,140.47104 80.4136798,140.712073 79.8056739,140.712073" id="Fill-15" fill="#371E10" mask="url(#mask-4)"></path>
                <path d="M140.542848,140.82312 C139.847485,140.82312 139.160858,140.513221 138.708348,139.926135 C137.946593,138.925849 138.145767,137.508922 139.157363,136.758278 C146.077799,131.61051 159.259997,131.736191 164.352921,136.99931 C165.226492,137.904904 165.193297,139.337326 164.276046,140.199879 C163.358796,141.058988 161.90692,141.026276 161.031601,140.122404 C157.505865,136.474204 146.968842,136.61538 141.924839,140.36688 C141.510766,140.673336 141.023313,140.82312 140.542848,140.82312" id="Fill-16" fill="#371E10" mask="url(#mask-4)"></path>
                <path d="M118.729062,181.209853 C118.673154,181.209853 118.618992,181.208131 118.559589,181.204688 C117.298152,181.11344 116.345958,180.032236 116.438557,178.787475 C116.733824,174.696808 117.19507,158.704295 117.19507,153.826829 C117.19507,152.578624 118.224138,151.566287 119.492564,151.566287 C120.757496,151.566287 121.784816,152.578624 121.784816,153.826829 C121.784816,158.888513 121.32357,174.851757 121.014326,179.111148 C120.928716,180.302537 119.922361,181.209853 118.729062,181.209853" id="Fill-17" fill="#CB9974" mask="url(#mask-4)"></path>
                <path d="M120.941994,199.268875 C120.368931,199.268875 119.809845,199.25338 119.264736,199.229277 C112.650051,198.893553 107.254872,196.791405 104.461189,193.454825 C103.654009,192.490695 103.79378,191.066881 104.773928,190.269751 C105.750581,189.474344 107.197216,189.613798 108.002649,190.577929 C109.919265,192.866017 114.325562,194.451667 119.498854,194.709916 C125.903882,195.037032 131.943757,193.341195 134.955833,190.405763 C135.860853,189.531159 137.310982,189.538045 138.203772,190.426423 C139.093069,191.3148 139.08608,192.747222 138.184554,193.625269 C133.890075,197.805463 126.752994,199.268875 120.941994,199.268875" id="Fill-18" fill="#B98562" mask="url(#mask-4)"></path>
                <path d="M65.6578295,142.289115 C66.1120868,133.472487 64.4732662,114.446407 76.2874509,109.460476 C80.8230356,107.54771 88.2344185,101.44442 92.6162545,100.080865 C114.415365,93.2975187 98.7382456,99.4903347 127.609793,94.8866121 C143.674778,92.32478 159.980869,103.463929 168.657183,104.72935 C175.560148,105.7348 178.860502,123.829462 178.051574,139.381229 C177.857641,143.172327 177.904814,146.347071 176.952621,153.710616 C176.833815,154.60588 175.993439,157.441457 178.161644,157.441457 C180.37877,157.441457 181.731059,152.889384 182.655298,146.259266 C184.966769,129.702048 185.922456,122.610525 185.171184,107.058758 C184.914354,101.709556 185.621947,83.7664013 174.61669,80.712174 C139.284206,70.9141991 58.0070879,61.5586912 58.0070879,109.691178 C58.0070879,131.060439 61.2794878,156.401573 63.5018544,157.889089 C65.6473466,159.318068 66.2693297,157.339879 66.2308926,155.291102 C66.1679954,152.157678 65.4621494,146.104316 65.6578295,142.289115" id="Fill-19" fill="#371E10" mask="url(#mask-4)"></path>
                <path d="M90.4352952,160.955023 C86.294565,160.955023 81.4410002,159.501941 79.7025924,156.120598 C79.1330236,155.008405 79.5872809,153.648292 80.7176828,153.083587 C81.8463375,152.524047 83.2300752,152.966514 83.8013912,154.082151 C84.4460871,155.340685 87.6276356,156.602663 91.1219227,156.41328 C92.2855203,156.347857 96.1571904,155.92605 97.1932465,153.181722 C97.6317796,152.012714 98.9508729,151.418741 100.144172,151.850878 C101.330482,152.284736 101.934994,153.589756 101.494714,154.757042 C100.144172,158.346706 96.3616062,160.652011 91.3787528,160.929198 C91.0695084,160.946415 90.7532754,160.955023 90.4352952,160.955023" id="Fill-20" fill="#B98562" mask="url(#mask-4)"></path>
                <path d="M150.778139,161.856313 C150.496849,161.856313 150.213812,161.851148 149.925533,161.835653 C144.883277,161.56363 140.65519,158.896777 138.88708,154.868089 C138.383903,153.719741 138.920276,152.390619 140.082126,151.89478 C141.252713,151.398942 142.598013,151.927492 143.099443,153.074118 C144.381847,155.994056 147.596591,157.180281 150.173628,157.319735 C153.605018,157.505675 156.714933,156.045706 158.119637,153.609555 C158.748608,152.519743 160.149817,152.142699 161.248771,152.759054 C162.351218,153.373687 162.739084,154.75446 162.11186,155.840828 C159.945402,159.599215 155.65267,161.856313 150.778139,161.856313" id="Fill-21" fill="#B98562" mask="url(#mask-4)"></path>
                <path d="M180.385758,146.43367 L64.1255846,146.43367 C62.8606527,146.43367 61.8333323,145.423055 61.8333323,144.174851 C61.8333323,142.926646 62.8606527,141.914309 64.1255846,141.914309 L180.385758,141.914309 C181.652437,141.914309 182.678011,142.926646 182.678011,144.174851 C182.678011,145.423055 181.652437,146.43367 180.385758,146.43367" id="Fill-22" fill="#30190E" mask="url(#mask-4)"></path>
                <path d="M149.012301,172.546108 C143.162865,172.546108 138.34599,170.643673 134.692713,166.890451 C126.898705,158.881282 127.380917,145.316312 127.40363,144.741277 C127.456044,143.456918 128.507825,142.453189 129.861861,142.511726 C131.166977,142.563375 132.182067,143.6463 132.129653,144.935825 C132.124412,145.052898 131.722569,157.120022 138.120608,163.679552 C140.88459,166.508242 144.447015,167.885571 149.012301,167.885571 C155.806943,167.885571 161.104282,166.002073 164.754065,162.290172 C170.52488,156.42275 170.697847,147.504544 170.615731,144.913443 C170.575547,143.625641 171.60112,142.549602 172.906237,142.508282 C174.185146,142.491066 175.303318,143.477578 175.343502,144.763659 C175.471043,148.68216 175.022027,158.545558 168.152259,165.535503 C163.57649,170.189154 157.136519,172.546108 149.012301,172.546108" id="Fill-23" fill="#30190E" mask="url(#mask-4)"></path>
                <path d="M92.919384,172.552823 C84.7602236,172.552823 78.2940453,170.183817 73.702552,165.514671 C66.8310364,158.524726 66.3837676,148.676823 66.5113091,144.763487 C66.5532406,143.475684 67.6591824,142.521883 68.9538158,142.504667 C70.2606792,142.544265 71.2879996,143.623747 71.2478153,144.913271 C71.1639524,147.499206 71.3404139,156.398474 77.1059876,162.264174 C80.7714948,165.993293 86.0915469,167.881956 92.919384,167.881956 C97.5091301,167.881956 101.090774,166.499461 103.865238,163.65872 C110.265025,157.09919 109.857941,145.052726 109.854446,144.935653 C109.802032,143.646128 110.817123,142.561482 112.123986,142.50811 C113.507724,142.470234 114.533297,143.456746 114.587458,144.741105 C114.611918,145.314418 115.09413,158.862172 107.296628,166.876505 C103.631121,170.6435 98.7932806,172.552823 92.919384,172.552823" id="Fill-24" fill="#30190E" mask="url(#mask-4)"></path>
                <path d="M175.461783,107.386907 C171.605838,109.978007 166.993379,111.31746 162.083905,110.553042 C155.50591,109.533818 155.318965,104.615032 159.538317,100.297105 C151.581825,109.692211 120.351634,120.306254 107.024423,115.39091 C102.633852,113.772549 102.546494,108.700534 104.524261,106.567396 C102.600656,108.3958 85.6673405,120.516296 75.609035,115.585458 C70.8882532,113.271545 75.6998865,107.333535 75.6998865,107.333535 C69.8190013,112.538118 56.9670133,116.967952 51.5770754,111.011004 C46.2814833,105.159077 53.1442632,96.7504827 58.5743854,93.4724395 C57.328672,93.5671309 53.8605921,94.0457527 52.21653,90.6626881 C48.7222429,83.4799168 62.7815071,69.3915618 86.9846867,61.2567118 C122.290964,49.3961866 156.085961,58.4383521 168.728292,66.4871191 C174.94987,70.4417752 183.166687,77.5091952 184.85268,85.3840743 C186.868884,94.7981187 183.475931,102.003272 175.461783,107.386907" id="Fill-25" fill="#C0934A" mask="url(#mask-4)"></path>
                <path d="M244.757166,41.3963148 C244.757166,64.2582562 225.949165,82.791941 202.748846,82.791941 C179.548527,82.791941 160.740527,64.2582562 160.740527,41.3963148 C160.740527,18.5343734 179.548527,0.000688664551 202.748846,0.000688664551 C225.949165,0.000688664551 244.757166,18.5343734 244.757166,41.3963148" id="Fill-26" fill="#173340" mask="url(#mask-4)"></path>
                <path d="M189.717951,61.4875866 C189.854228,61.4944732 189.990505,61.4979166 190.126782,61.4979166 C192.03641,61.4979166 193.811508,60.7834271 195.128854,59.4852944 C196.486385,58.1475635 197.211449,56.3432624 197.171265,54.40295 C197.131081,52.4419777 196.313418,50.5791401 194.872024,49.1570478 C193.388699,47.6953573 191.444129,46.8896198 189.396476,46.8896198 C187.486848,46.8896198 185.710003,47.6058309 184.39091,48.9056852 C182.963494,50.3122826 182.254153,52.2543166 182.360729,54.2359489 L186.676174,49.9834453 C186.950475,49.7114228 187.324364,49.5599166 187.713977,49.5599166 C188.10359,49.5599166 188.477479,49.7114228 188.753528,49.9834453 L194.033395,55.1863059 C194.608206,55.7527325 194.608206,56.6686564 194.033395,57.235083 L189.717951,61.4875866 Z M190.126782,64.3954726 C188.802448,64.3954726 187.500826,64.1492751 186.256859,63.6672099 C185.795613,63.4881571 185.456668,63.092175 185.35708,62.6152748 C185.255746,62.1366529 185.406,61.6408144 185.755429,61.2964822 L190.916491,56.2106945 L187.713977,53.0548892 L182.554662,58.1406769 C182.203486,58.4850091 181.700309,58.633072 181.21635,58.5349373 C180.730644,58.435081 180.328801,58.1010787 180.147098,57.6482817 C178.639313,53.8744 179.488425,49.639113 182.311809,46.8569082 C184.186494,45.0112872 186.702381,43.9937853 189.396476,43.9937853 C192.228596,43.9937853 194.912209,45.1008136 196.951125,47.1099924 C198.932386,49.0623564 200.054052,51.6310752 200.109961,54.3444135 C200.165869,57.0801335 199.135055,59.6333573 197.206208,61.5340714 C195.335017,63.3779708 192.820878,64.3954726 190.126782,64.3954726 L190.126782,64.3954726 Z" id="Fill-27" fill="#FBFCF4" mask="url(#mask-4)"></path>
                <path d="M215.369512,21.2938522 C213.461632,21.2938522 211.684787,22.0083417 210.36744,23.3064744 C209.00991,24.6442053 208.284845,26.4485064 208.32503,28.3888188 C208.365214,30.3515127 209.182877,32.2143504 210.624271,33.634721 C212.109343,35.0964115 214.053913,35.902149 216.101566,35.902149 C218.009446,35.902149 219.788038,35.1859379 221.105385,33.8878052 C222.532801,32.4812079 223.242141,30.5374522 223.135566,28.5575416 L218.821868,32.8083235 C218.247058,33.3747501 217.317577,33.3747501 216.742767,32.8083235 L211.462899,27.6054629 C211.186851,27.3334404 211.033102,26.9650048 211.033102,26.5810743 C211.033102,26.1971438 211.186851,25.8287083 211.462899,25.5584075 L215.778344,21.3041822 C215.642067,21.2972956 215.50579,21.2938522 215.369512,21.2938522 M216.101566,38.7979835 C213.267699,38.7979835 210.585833,37.6926769 208.546917,35.683498 C206.565656,33.731134 205.44399,31.1606936 205.386334,28.4473553 C205.330426,25.7116353 206.36124,23.1584115 208.290087,21.259419 C210.161277,19.413798 212.677164,18.3980178 215.369512,18.3980178 C216.693847,18.3980178 217.997216,18.6424937 219.241183,19.1245589 C219.700681,19.3036117 220.039627,19.6995938 220.140961,20.1782157 C220.242296,20.6551159 220.092041,21.1509543 219.740866,21.4970083 L214.579804,26.5810743 L217.782318,29.7368796 L222.94338,24.6510919 C223.292808,24.3067597 223.795986,24.1586968 224.281692,24.2585531 C224.76565,24.3566878 225.167493,24.6906901 225.349196,25.1452087 C226.856981,28.9173688 226.00787,33.1526558 223.184486,35.9348606 C221.309801,37.7822032 218.793914,38.7979835 216.101566,38.7979835" id="Fill-28" fill="#FBFCF4" mask="url(#mask-4)"></path>
                <path d="M199.761405,51.8984492 L213.404849,38.4539955 C212.384518,38.187138 211.407864,37.7722176 210.504591,37.216121 L198.505209,49.0387697 C199.067789,49.9305903 199.492345,50.8912773 199.761405,51.8984492" id="Fill-29" fill="#FBFCF4" mask="url(#mask-4)"></path>
                <path d="M196.950426,47.1098203 L196.950426,47.1098203 C196.35465,46.5227337 195.711701,45.9993487 195.026821,45.5413867 L206.99126,33.7531713 C206.42868,32.8630724 206.005871,31.9006637 205.735064,30.8934917 L192.09162,44.3396671 C193.903408,44.8096807 195.573677,45.7531511 196.950426,47.1098203" id="Fill-30" fill="#FBFCF4" mask="url(#mask-4)"></path>
            </g>
        </g>
    </g>
</svg>