<?xml version="1.0" encoding="UTF-8" standalone="no"?>
<svg width="246px" height="273px" viewBox="0 0 246 273" version="1.1" xmlns="http://www.w3.org/2000/svg" xmlns:xlink="http://www.w3.org/1999/xlink">
    <!-- Generator: Sketch 3.6.1 (26313) - http://www.bohemiancoding.com/sketch -->
    <title>product owner</title>
    <desc>Created with Sketch.</desc>
    <defs>
        <path id="path-1" d="M122.379369,242.754254 L0,242.754254 L0,1.56326853 L244.758738,1.56326853 L244.758738,242.754254 L122.379369,242.754254 L122.379369,242.754254 Z"></path>
        <path id="path-3" d="M0,272.161952 L244.759088,272.161952 L244.759088,-5.68434189e-14 L0,-5.68434189e-14 L0,272.161952 Z"></path>
    </defs>
    <g id="Page-1" stroke="none" stroke-width="1" fill="none" fill-rule="evenodd">
        <g id="Desktop-HD" transform="translate(-145.000000, -375.000000)">
            <g id="product-owner" transform="translate(145.914062, 375.627921)">
                <g id="Group-3" transform="translate(0.000000, 29.407698)">
                    <mask id="mask-2" fill="white">
                        <use xlink:href="#path-1"></use>
                    </mask>
                    <g id="Clip-2"></g>
                    <path d="M244.758738,122.160483 C244.758738,188.761232 189.971811,242.754254 122.381815,242.754254 C54.7935667,242.754254 -0.000349428711,188.761232 -0.000349428711,122.160483 C-0.000349428711,55.556291 54.7935667,1.56326853 122.381815,1.56326853 C189.971811,1.56326853 244.758738,55.556291 244.758738,122.160483" id="Fill-1" fill="#F26D64" mask="url(#mask-2)"></path>
                </g>
                <mask id="mask-4" fill="white">
                    <use xlink:href="#path-3"></use>
                </mask>
                <g id="Clip-5"></g>
                <path d="M107.765562,258.083927 L137.917765,258.083927 L137.917765,221.7035 L107.765562,221.7035 L107.765562,258.083927 Z" id="Fill-4" fill="#DFAA78" mask="url(#mask-4)"></path>
                <path d="M153.315166,247.858636 L152.984956,247.214734 C152.892358,247.028795 152.707161,246.91 152.502745,246.903114 L146.104705,244.756202 L146.111694,245.580878 C145.06166,245.045441 144.03434,244.503118 144.03434,244.503118 L122.843236,248.147875 L101.620683,244.692501 C101.620683,244.692501 100.635294,245.152184 99.5223636,245.641136 L99.5328465,244.756202 L93.1313125,246.903114 C92.9268967,246.91 92.7416995,247.028795 92.6491008,247.214734 L92.3153964,247.867244 C81.5215435,251.704827 73.6122247,255.132655 68.1244468,259.664068 C72.9448158,262.019301 77.9468878,264.056026 83.1009613,265.777687 C88.5607849,267.600927 94.1883343,269.054009 99.9626438,270.107666 C105.667067,271.147549 111.502527,271.806946 117.455045,272.03937 C119.090371,272.103071 120.730939,272.161608 122.38199,272.161608 C124.331802,272.161608 126.269384,272.106515 128.196484,272.016988 C134.14376,271.743244 139.975725,271.035641 145.671413,269.954438 C151.403791,268.864626 156.987662,267.377111 162.403807,265.529768 C167.489742,263.796055 172.421928,261.743835 177.175906,259.392045 C171.700358,254.991479 163.897615,251.622188 153.315166,247.858636" id="Fill-6" fill="#8B7454" mask="url(#mask-4)"></path>
                <path d="M146.111694,245.580361 C145.06166,245.044925 144.03434,244.502601 144.03434,244.502601 C144.03434,244.502601 137.700945,238.631736 137.919337,238.705767 C138.13773,238.783242 122.843236,248.147358 122.843236,248.147358 L107.767134,238.705767 L101.620683,244.691984 C101.620683,244.691984 100.635294,245.151668 99.5223636,245.640619 L99.4821793,249.653812 L99.9626438,270.107149 C105.667067,271.148754 111.502527,271.806429 117.455045,272.038853 L117.856888,264.396398 L113.925815,257.256669 C113.564156,256.602437 113.738871,255.784648 114.338141,255.33013 L121.111816,250.218517 C121.225381,249.772607 121.545108,249.395563 121.981894,249.202737 C122.184563,249.120097 122.395967,249.075334 122.603877,249.075334 C122.679004,249.075334 122.754131,249.082221 122.829259,249.092551 C122.900891,249.082221 122.976019,249.075334 123.051146,249.075334 C123.259056,249.075334 123.466966,249.118375 123.660899,249.202737 C124.108168,249.39212 124.426148,249.772607 124.541459,250.218517 L131.315135,255.33013 C131.916152,255.784648 132.090867,256.602437 131.729208,257.25839 L127.794641,264.396398 L128.196484,272.016472 C134.14376,271.742728 139.975725,271.035125 145.671413,269.953921 L146.151878,249.653812 L146.111694,245.580361 Z" id="Fill-7" fill="#FEFEFE" mask="url(#mask-4)"></path>
                <path d="M210.626192,121.90826 C210.626192,121.90826 206.660177,121.861775 201.03088,114.363939 C198.102667,110.460933 191.987665,88.8110413 177.771158,74.7743361 C165.862627,63.0188322 147.267779,55.5898634 119.154492,55.5898634 C67.2573394,55.5898634 60.350881,88.5579571 60.350881,88.5579571 C60.350881,88.5579571 37.6450033,99.9260871 41.5935477,148.814384 C41.5935477,148.814384 41.8730907,166.80058 51.1032501,184.816045 C60.3351567,202.831509 54.3721557,209.088027 50.77304,210.186447 C45.3376764,211.84785 59.9490379,218.3454 64.9476156,213.328479 C64.9476156,213.328479 66.4868491,218.794754 61.872643,221.704361 C58.733026,223.680829 72.9320617,226.538786 81.4633637,220.46993 C80.1390289,223.145392 78.3796553,225.702059 77.3488406,227.026017 C85.5656567,229.333043 92.6835196,222.093457 93.6671614,214.375249 C93.8471172,212.968651 93.7492771,211.543116 93.321227,210.301798 C98.4036676,210.628914 150.611811,214.0137 152.629762,214.375249 C154.749047,214.754014 161.190765,228.916401 177.627892,226.502632 C189.681435,224.732764 176.474777,224.898043 179.167126,211.86851 C179.167126,211.86851 185.470819,214.881417 190.158406,211.140247 C194.819785,207.416294 183.784826,210.186447 188.028638,195.347447 C188.028638,195.347447 211.857929,168.424107 199.935421,126.455167 C199.935421,126.455167 205.896675,128.918865 210.626192,121.90826" id="Fill-8" fill="#311A0E" mask="url(#mask-4)"></path>
                <path d="M78.6623431,226.54619 C79.2598662,226.651211 79.8608836,226.702861 80.4531653,226.702861 C87.1656908,226.702861 92.1415556,220.255239 92.9015631,214.279352 C93.0762774,212.927848 92.9697017,211.636602 92.595813,210.543347 C92.5136972,210.304036 92.5573758,210.0389 92.7146187,209.839188 C92.8718617,209.639475 93.0972432,209.527567 93.3732919,209.544784 C99.2349585,209.923549 150.695325,213.258407 152.76569,213.630286 C153.539674,213.768019 154.247268,214.589251 155.529671,216.075045 C158.522528,219.552801 164.101157,226.021083 173.942817,226.021083 C175.099426,226.021083 176.304955,225.931557 177.51922,225.752504 C178.492379,225.609606 181.343717,225.191242 181.983172,224.796982 C181.869607,224.578331 181.54988,224.182349 181.282567,223.853511 C179.785265,221.995839 177.003812,218.545629 178.413757,211.71752 C178.46093,211.488539 178.614679,211.293991 178.829577,211.18897 C179.037487,211.08567 179.287329,211.08567 179.505722,211.185527 C179.524941,211.195857 181.790986,212.2564 184.507794,212.2564 C186.517009,212.2564 188.258911,211.683087 189.674097,210.550234 C190.519715,209.877064 190.561646,209.622258 190.561646,209.611928 C190.519715,209.487969 190.1004,209.148801 189.792903,208.899161 C187.968885,207.420253 184.561955,204.665595 187.285752,195.141364 C187.318948,195.034621 187.374857,194.934765 187.449984,194.850404 C187.680607,194.583546 210.858213,167.722185 199.194283,126.65884 C199.115661,126.379931 199.204766,126.080362 199.426653,125.885814 C199.645046,125.694709 199.959532,125.64306 200.232086,125.756689 C200.239075,125.758411 201.144095,126.118238 202.477165,126.118238 C204.309919,126.118238 206.916657,125.441625 209.325968,122.392563 C207.625997,121.82958 204.385046,120.102753 200.413789,114.815531 C199.536723,113.644801 198.463977,111.158722 196.98764,107.720565 C193.379789,99.3326305 187.339914,85.2959253 177.2257,75.3085676 C164.483782,62.7266663 144.945475,56.3479109 119.154142,56.3479109 C92.6709401,56.3479109 78.3006844,65.1507655 70.9102672,72.5366928 C62.9100968,80.5269233 61.1262633,88.632505 61.1052975,88.7117014 C61.0581247,88.9372391 60.9078703,89.1300652 60.7034545,89.2333648 C60.4815673,89.3469945 38.5077428,101.037075 42.3584472,148.754642 C42.3654358,148.98018 42.7533016,166.833808 51.7930224,184.473951 C57.8084377,196.224289 57.2947774,202.826861 55.7992226,206.296008 C54.3892777,209.570608 51.9782196,210.613935 51.0015664,210.911783 C50.4424804,211.082227 50.3463875,211.249228 50.3428932,211.249228 C50.3673533,211.992986 54.5639921,214.437745 59.3965911,214.437745 C60.9323303,214.437745 63.0498683,214.151949 64.4021574,212.797002 C64.5925961,212.602454 64.8791276,212.523258 65.1429463,212.593846 C65.4085121,212.662712 65.6199165,212.864147 65.6915494,213.125839 C65.7090208,213.184376 67.3094043,219.127551 62.3370337,222.309181 C62.9590169,222.71205 65.0608305,223.376611 68.5411405,223.376611 C73.3213253,223.376611 77.8708871,222.093973 81.0139983,219.855814 C81.3040242,219.650936 81.69189,219.668152 81.9626973,219.891968 C82.2317574,220.114063 82.3138731,220.489385 82.1566302,220.802727 C81.0996084,222.935866 79.7368364,225.053509 78.6623431,226.54619 M80.4531653,228.217923 C79.3524648,228.217923 78.2395344,228.062973 77.1370868,227.753074 C76.8942338,227.685929 76.7003009,227.501712 76.6181852,227.262401 C76.5395637,227.02309 76.5849894,226.763119 76.7369909,226.563406 C77.4672969,225.628544 78.4841345,224.175462 79.4537992,222.548492 C75.3794604,224.552506 71.0255786,224.893395 68.5411405,224.893395 C65.8802409,224.893395 61.2380804,224.418216 60.7104431,222.632853 C60.6248331,222.353944 60.5357287,221.646341 61.4564734,221.06442 C64.299076,219.27217 64.5244575,216.357398 64.3951689,214.730428 C63.095294,215.534443 61.3953234,215.954529 59.3965911,215.954529 C55.0828937,215.954529 49.1862842,213.774906 48.8316141,211.462714 C48.7634755,211.039186 48.8036598,209.99758 50.5438148,209.463865 C51.1483264,209.283091 53.1924844,208.468745 54.3840363,205.705479 C55.7485554,202.529013 56.1748584,196.386126 50.4180204,185.15745 C41.2175625,167.195357 40.8262023,149.007726 40.822708,148.82523 C37.0890622,102.598622 56.8055773,89.6827185 59.6901113,88.0540268 C60.6510402,84.4660845 70.1275469,54.8311272 119.154142,54.8311272 C145.368284,54.8311272 165.271743,61.3613888 178.31417,74.2394159 C188.639788,84.4333729 194.751297,98.6405226 198.402827,107.130035 C199.788311,110.34782 200.880276,112.885549 201.652514,113.913381 C206.906174,120.915377 210.611866,121.147802 210.650303,121.149523 C210.926352,121.161575 211.183182,121.319968 211.305482,121.562722 C211.431276,121.807198 211.424288,122.099881 211.267045,122.328861 C208.309131,126.713933 204.853281,127.6333 202.477165,127.6333 C201.928562,127.6333 201.435868,127.583372 201.023542,127.514506 C206.750679,148.809735 203.210966,166.083164 199.175064,176.900362 C194.99415,188.101491 189.602465,194.681681 188.721904,195.711234 C186.35103,204.150818 189.115012,206.387257 190.769556,207.728431 C191.456184,208.282806 192.104374,208.804469 192.10088,209.620537 C192.097386,210.453821 191.360091,211.156259 190.643762,211.729572 C188.940297,213.086241 186.876921,213.771462 184.507794,213.771462 C182.514303,213.771462 180.76716,213.284232 179.757311,212.922683 C178.894222,218.452659 181.125324,221.219369 182.488096,222.908319 C183.218402,223.813913 183.794959,224.528402 183.469991,225.341027 C183.104838,226.253507 181.979677,226.630551 177.744601,227.252071 C176.455209,227.441454 175.178047,227.537867 173.942817,227.537867 C163.388323,227.537867 157.512679,220.718366 154.35559,217.056392 C153.614802,216.199005 152.776173,215.224544 152.468675,215.11608 C150.903235,214.837171 114.375705,212.423401 94.3394622,211.125269 C94.5473723,212.166874 94.580568,213.304892 94.4268194,214.470457 C93.5881905,221.081636 88.0060669,228.217923 80.4531653,228.217923" id="Fill-9" fill="#311A0E" mask="url(#mask-4)"></path>
                <path d="M175.038451,97.3442837 C165.504288,83.8257986 148.155153,73.8608226 131.752969,73.2186429 C131.752969,73.2186429 131.431495,73.2065912 130.905604,73.1859313 L130.923076,72.5523599 C130.923076,72.5523599 126.948324,72.7073094 122.842537,72.8691456 C118.73675,72.7073094 114.761998,72.5523599 114.761998,72.5523599 L114.779469,73.1859313 C114.253579,73.2065912 113.932105,73.2186429 113.932105,73.2186429 C97.5299211,73.8608226 80.5861229,84.1115944 70.6466232,97.3442837 C54.1815423,119.255868 61.5492467,168.283619 65.1081781,185.543274 C75.0546664,222.207775 99.8012077,228.472901 122.842537,228.472901 C145.883866,228.472901 171.455059,222.207775 180.576896,185.543274 C184.135827,170.161952 191.858202,121.178964 175.038451,97.3442837" id="Fill-10" fill="#DFAA78" mask="url(#mask-4)"></path>
                <path d="M98.5837981,164.001503 C98.5837981,168.472658 95.4861126,172.096755 91.6633625,172.096755 C87.8423595,172.096755 84.7394325,168.472658 84.7394325,164.001503 C84.7394325,159.530348 87.8423595,155.907973 91.6633625,155.907973 C95.4861126,155.907973 98.5837981,159.530348 98.5837981,164.001503" id="Fill-11" fill="#371E10" mask="url(#mask-4)"></path>
                <path d="M161.559588,164.001503 C161.559588,168.472658 158.458408,172.096755 154.635658,172.096755 C150.814655,172.096755 147.715222,168.472658 147.715222,164.001503 C147.715222,159.530348 150.814655,155.907973 154.635658,155.907973 C158.458408,155.907973 161.559588,159.530348 161.559588,164.001503" id="Fill-12" fill="#371E10" mask="url(#mask-4)"></path>
                <path d="M81.9826147,149.145459 C81.4095516,149.145459 80.8399828,148.937138 80.3962084,148.520496 C79.4719694,147.656222 79.430038,146.216913 80.3071041,145.307876 C84.2661314,141.196549 95.8531874,138.657098 102.654817,143.284924 C103.703103,144.001135 103.965175,145.416341 103.241858,146.449337 C102.51854,147.480613 101.078894,147.742305 100.034102,147.027816 C95.06872,143.648194 86.1250921,145.874302 83.6546311,148.436135 C83.2003738,148.906148 82.5906207,149.145459 81.9826147,149.145459" id="Fill-13" fill="#371E10" mask="url(#mask-4)"></path>
                <path d="M164.78429,149.335531 C164.176284,149.335531 163.570026,149.097941 163.115768,148.631371 C159.577803,144.972841 151.147835,145.074419 146.09859,148.834527 C145.081752,149.590336 143.635118,149.392345 142.86288,148.390338 C142.099378,147.388331 142.3003,145.962796 143.317138,145.205265 C150.274263,140.026507 161.30398,140.16424 166.456307,145.492782 C167.333373,146.40182 167.29843,147.841128 166.377685,148.708846 C165.930417,149.128931 165.357353,149.335531 164.78429,149.335531" id="Fill-14" fill="#371E10" mask="url(#mask-4)"></path>
                <path d="M119.157112,191.637267 C119.099457,191.637267 119.045295,191.635545 118.985892,191.632102 C117.717466,191.540854 116.761778,190.451042 116.850883,189.201116 C117.151391,185.105284 117.614385,169.021523 117.614385,164.099293 C117.614385,162.842481 118.648694,161.824979 119.920614,161.824979 C121.197776,161.824979 122.228591,162.842481 122.228591,164.099293 C122.228591,169.205741 121.767345,185.263677 121.452859,189.52651 C121.368996,190.724787 120.355653,191.637267 119.157112,191.637267" id="Fill-15" fill="#B17C55" mask="url(#mask-4)"></path>
                <path d="M121.3821,209.793736 C120.805542,209.793736 120.242962,209.779962 119.696106,209.754138 C113.046478,209.420135 107.61985,207.304213 104.81219,203.946974 C104.003263,202.9794 104.13954,201.545256 105.124929,200.748127 C106.108571,199.947554 107.562194,200.085287 108.374616,201.054583 C110.298221,203.358166 114.72723,204.948981 119.93197,205.210673 C126.333504,205.536067 132.448507,203.835066 135.47456,200.884138 C136.386568,200.002648 137.843686,200.011256 138.741718,200.903076 C139.638003,201.796619 139.62752,203.235928 138.720752,204.11914 C134.403561,208.323437 127.228042,209.793736 121.3821,209.793736" id="Fill-16" fill="#A36E45" mask="url(#mask-4)"></path>
                <path d="M73.4106043,117.738568 C73.4106043,117.738568 78.7953007,130.079437 94.9458958,133.76207 C94.9458958,133.76207 96.4851292,130.244716 88.4080846,105.612907 C88.4080846,105.612907 107.766435,130.244716 139.171341,133.76207 L131.520599,113.310455 C131.520599,113.310455 143.965502,124.589059 167.630562,135.473402 C182.245418,142.194768 192.628692,140.677984 192.628692,140.677984 C192.628692,140.677984 207.435734,55.9670794 101.193681,70.7475423 C101.193681,70.7475423 41.593373,78.6155348 56.8738906,160.50808 C56.8738906,160.50808 71.1043748,141.993333 73.4106043,117.738568" id="Fill-17" fill="#311A0E" mask="url(#mask-4)"></path>
                <path d="M124.5011,67.5010054 L124.494112,67.5010054 C117.2225,67.5010054 109.309687,68.088092 100.982801,69.2467701 C100.126701,69.3603997 79.6152352,72.2665641 65.5140396,91.4062737 C53.2840347,108.008254 49.8683691,131.350539 55.3631355,160.784062 C55.4679641,161.374592 55.9257158,161.846327 56.5197446,161.98406 C56.635056,162.011607 56.7556089,162.023658 56.8744147,162.023658 C57.3478906,162.023658 57.8056422,161.808451 58.0991623,161.42452 C58.654754,160.701422 70.9563918,144.473042 74.3895288,122.308374 C77.4243172,126.471351 83.6266768,132.738198 94.6022326,135.238051 C94.7140498,135.263876 94.8311084,135.277649 94.9464199,135.277649 C95.5509316,135.277649 96.1135118,134.928152 96.359859,134.363447 C96.7302535,133.511224 97.3801909,129.470485 91.9745287,111.768363 C99.6217761,119.343673 116.069385,132.6986 138.99715,135.267319 C139.0583,135.274206 139.115956,135.277649 139.170118,135.277649 C139.641846,135.277649 140.089115,135.065885 140.382635,134.697449 C140.712845,134.28425 140.80195,133.731597 140.6185,133.23748 L134.9298,118.038653 C140.497947,122.268776 151.244627,129.60994 166.981149,136.847804 C177.373159,141.627136 185.743723,142.341625 189.804085,142.341625 C191.718954,142.341625 192.807425,142.184954 192.854598,142.178068 C193.509776,142.079933 194.032172,141.57893 194.14399,140.935028 C194.365877,139.68338 199.291074,110.031206 180.935584,88.5603674 C168.985122,74.5873637 150.002408,67.5010054 124.5011,67.5010054 M124.5011,69.0160675 C205.145752,69.0212324 192.629216,140.678501 192.629216,140.678501 C192.629216,140.678501 191.626356,140.824842 189.804085,140.824842 C185.762942,140.824842 177.699874,140.105187 167.631086,135.472197 C143.966027,124.587853 131.521123,113.30925 131.521123,113.30925 L139.170118,133.760865 C107.766959,130.243511 88.4086087,105.613423 88.4086087,105.613423 C96.4856534,130.243511 94.9464199,133.760865 94.9464199,133.760865 C78.7958249,130.079953 73.4111285,117.739084 73.4111285,117.739084 C71.1031518,141.99385 56.8744147,160.506875 56.8744147,160.506875 C41.5938972,78.6160513 101.194205,70.7480588 101.194205,70.7480588 C109.722013,69.5601124 117.465353,69.0160675 124.5011,69.0160675" id="Fill-18" fill="#311A0E" mask="url(#mask-4)"></path>
                <path d="M139.942006,226.028486 C134.635931,227.383434 128.919277,226.123177 128.463272,222.206398 C127.916416,217.592345 119.78521,217.592345 119.238354,222.206398 C118.778856,226.123177 113.9812,227.183721 108.568549,226.31256 C105.425438,225.806392 102.986425,223.859193 102.153038,223.769666 C99.9970625,223.533799 100.126351,225.573967 102.056945,227.645126 C103.692271,229.397777 105.614129,230.783715 107.731667,231.902795 C116.598421,236.590879 131.174839,236.401496 140.038098,231.713412 C141.767771,230.797488 147.363871,227.030493 147.402309,225.656607 C147.486171,222.144418 142.026348,225.496493 139.942006,226.028486" id="Fill-19" fill="#311A0E" mask="url(#mask-4)"></path>
                <path d="M131.728334,257.258735 C132.089993,256.602782 131.915279,255.784993 131.316008,255.330474 L124.542333,250.218861 C124.425274,249.771229 124.109041,249.392464 123.661773,249.203081 C123.466092,249.116998 123.258182,249.075678 123.050272,249.075678 C122.975145,249.075678 122.900018,249.082565 122.828385,249.092895 C122.753258,249.082565 122.678131,249.075678 122.603004,249.075678 C122.395093,249.075678 122.183689,249.11872 121.982768,249.203081 C121.545982,249.395907 121.224507,249.771229 121.11269,250.218861 L114.339015,255.330474 C113.737997,255.784993 113.56503,256.602782 113.926689,257.257013 L117.857762,264.395021 L117.454171,272.039198 C119.091245,272.102899 120.730066,272.161436 122.381116,272.161436 C124.332676,272.161436 126.268511,272.106342 128.197357,272.016816 L127.793767,264.395021 L131.728334,257.258735 Z" id="Fill-20" fill="#462C18" mask="url(#mask-4)"></path>
                <path d="M99.5221889,245.640964 L99.5326717,244.75603 L93.1311378,246.902942 C92.926722,246.909828 92.7415247,247.030345 92.6489261,247.214562 L92.3152217,247.867072 L83.1025338,265.777515 C88.5606102,267.600755 94.1881596,269.053837 99.9624691,270.107494 L99.4820046,249.654156 L99.5221889,245.640964 Z" id="Fill-21" fill="#AC8D6B" mask="url(#mask-4)"></path>
                <path d="M152.984258,247.214562 C152.891659,247.030345 152.708209,246.909828 152.503793,246.902942 L146.104006,244.75603 L146.110995,245.580706 L146.152926,249.654156 L145.670715,269.954266 C151.40484,268.864454 156.986963,267.376939 162.404856,265.529596 L153.314468,247.858464 L152.984258,247.214562 Z" id="Fill-22" fill="#AC8D6B" mask="url(#mask-4)"></path>
                <path d="M106.947549,263.461192 L100.521555,245.962226 C100.303162,245.363088 100.617648,244.703691 101.22216,244.488484 C101.835407,244.268111 102.501069,244.581453 102.719462,245.17887 L108.008065,259.582289 L121.805258,248.195221 C122.296205,247.785465 123.0335,247.849167 123.452814,248.336397 C123.866887,248.825349 123.800496,249.550168 123.306054,249.958202 L106.947549,263.461192 Z" id="Fill-23" fill="#B0ADB2" mask="url(#mask-4)"></path>
                <path d="M138.153979,263.451034 L121.805957,249.958374 C121.309768,249.55034 121.248618,248.825521 121.662691,248.336569 C122.078511,247.847617 122.815806,247.787359 123.306753,248.195393 L137.112681,259.591069 L142.467676,245.354651 C142.689564,244.758957 143.363961,244.454223 143.968473,244.676317 C144.572984,244.89669 144.880482,245.557808 144.658594,246.153502 L138.153979,263.451034 Z" id="Fill-24" fill="#B0ADB2" mask="url(#mask-4)"></path>
                <path d="M244.758738,41.3963148 C244.758738,64.2582562 225.950738,82.791941 202.750419,82.791941 C179.550099,82.791941 160.742099,64.2582562 160.742099,41.3963148 C160.742099,18.5343734 179.550099,0.000688664551 202.750419,0.000688664551 C225.950738,0.000688664551 244.758738,18.5343734 244.758738,41.3963148" id="Fill-25" fill="#173340" mask="url(#mask-4)"></path>
                <path d="M210.134546,30.4589444 L210.134546,26.144461 L214.511141,30.4589444 L210.134546,30.4589444 Z M202.751118,45.0569112 C203.079581,45.0569112 203.369606,45.358202 203.369606,45.6663794 L203.369606,46.8870373 C203.369606,47.1952147 203.074339,47.4965054 202.751118,47.4965054 L194.083538,47.4965054 C193.760317,47.4965054 193.46505,47.2210396 193.46505,46.8870373 L193.46505,45.6663794 C193.46505,45.3323771 193.755075,45.0569112 194.083538,45.0569112 L202.751118,45.0569112 Z M211.41695,40.1760012 C211.754148,40.1760012 212.035438,40.4600754 212.035438,40.787191 L212.035438,42.0061273 C212.035438,42.3315213 211.74716,42.6173171 211.41695,42.6173171 L194.083538,42.6173171 C193.751581,42.6173171 193.46505,42.3401296 193.46505,42.0061273 L193.46505,40.787191 C193.46505,40.451467 193.74634,40.1760012 194.083538,40.1760012 L211.41695,40.1760012 Z M211.41695,35.2950912 C211.755895,35.2950912 212.035438,35.5791654 212.035438,35.906281 L212.035438,37.1252173 C212.035438,37.4523329 211.74716,37.7364071 211.41695,37.7364071 L194.083538,37.7364071 C193.751581,37.7364071 193.46505,37.4609412 193.46505,37.1269389 L193.46505,35.906281 C193.46505,35.570557 193.74634,35.2950912 194.083538,35.2950912 L211.41695,35.2950912 Z M190.9876,56.6471356 L214.511141,56.6471356 L214.511141,32.8985386 L210.134546,32.8985386 C208.770027,32.8985386 207.657097,31.803562 207.657097,30.4589444 L207.657097,26.144461 L190.9876,26.144461 L190.9876,56.6471356 Z M190.369111,23.0953987 C189.006339,23.0953987 187.893409,24.1903753 187.893409,25.5349929 L187.893409,57.2583254 C187.893409,58.6012213 189.006339,59.6979196 190.369111,59.6979196 L215.131377,59.6979196 C216.495896,59.6979196 217.607079,58.6012213 217.607079,57.2583254 L217.607079,30.2075819 C217.607079,29.5344123 217.364226,28.955934 216.883762,28.4807555 L212.142014,23.8081665 C211.659803,23.332988 211.072762,23.0953987 210.389629,23.0953987 L190.369111,23.0953987 Z" id="Fill-26" fill="#FBFCF4" mask="url(#mask-4)"></path>
            </g>
        </g>
    </g>
</svg>