<?xml version="1.0" encoding="UTF-8" standalone="no"?>
<svg width="246px" height="273px" viewBox="0 0 246 273" version="1.1" xmlns="http://www.w3.org/2000/svg" xmlns:xlink="http://www.w3.org/1999/xlink">
    <!-- Generator: Sketch 3.6.1 (26313) - http://www.bohemiancoding.com/sketch -->
    <title>scrum master</title>
    <desc>Created with Sketch.</desc>
    <defs>
        <path id="path-1" d="M244.758738,242.754254 L0,242.754254 L0,1.5634407 L244.758738,1.5634407 L244.758738,242.754254 L244.758738,242.754254 Z"></path>
        <path id="path-3" d="M0,272.161952 L244.759088,272.161952 L244.759088,-5.68434189e-14 L0,-5.68434189e-14 L0,272.161952 Z"></path>
    </defs>
    <g id="Page-1" stroke="none" stroke-width="1" fill="none" fill-rule="evenodd">
        <g id="Desktop-HD" transform="translate(-1017.000000, -375.000000)">
            <g id="scrum-master" transform="translate(1017.738696, 375.627921)">
                <g id="Group-3" transform="translate(0.000000, 29.407698)">
                    <mask id="mask-2" fill="white">
                        <use xlink:href="#path-1"></use>
                    </mask>
                    <g id="Clip-2"></g>
                    <path d="M244.758738,122.160655 C244.758738,188.761404 189.970064,242.754426 122.380068,242.754426 C54.7918196,242.754426 -0.000349428711,188.761404 -0.000349428711,122.160655 C-0.000349428711,55.5564631 54.7918196,1.5634407 122.380068,1.5634407 C189.970064,1.5634407 244.758738,55.5564631 244.758738,122.160655" id="Fill-1" fill="#9BCDB3" mask="url(#mask-2)"></path>
                </g>
                <mask id="mask-4" fill="white">
                    <use xlink:href="#path-3"></use>
                </mask>
                <g id="Clip-5"></g>
                <path d="M107.403903,246.562569 L137.388381,246.562569 L137.388381,210.383577 L107.403903,210.383577 L107.403903,246.562569 Z" id="Fill-4" fill="#FDCC99" mask="url(#mask-4)"></path>
                <path d="M122.380243,272.161952 C144.666806,272.161952 165.543424,266.260097 183.54075,256.00416 C178.353481,245.574335 167.837424,241.831444 145.729069,234.536764 C145.087867,234.325 139.919817,230.528737 139.919817,230.528737 C139.919817,230.528737 137.17156,227.519273 137.388206,227.589861 C137.606599,227.663892 122.395967,236.750821 122.395967,236.750821 L107.403728,227.589861 L104.1488,230.616541 C104.1488,230.616541 98.0932002,234.85355 96.7077153,235.314955 C76.1892614,242.113796 66.2392789,245.953101 61.2407012,256.017933 C79.2345326,266.266984 100.102415,272.161952 122.380243,272.161952" id="Fill-6" fill="#E9E9E2" mask="url(#mask-4)"></path>
                <path d="M157.627641,158.989575 C155.67084,169.937619 162.261066,179.05726 172.35082,181.025118 C182.438827,182.987812 192.196623,177.053246 194.146436,166.101758 C196.101489,155.15027 189.513011,144.677403 179.426751,142.711266 C169.340491,140.750294 159.5792,148.034643 157.627641,158.989575" id="Fill-7" fill="#FDCC99" mask="url(#mask-4)"></path>
                <path d="M87.2436134,158.989575 C89.1969199,169.937619 82.6084416,179.05726 72.5186875,181.025118 C62.4289335,182.987812 52.6728839,177.053246 50.7213245,166.101758 C48.7662709,155.15027 55.3547492,144.677403 65.441009,142.711266 C75.5290159,140.750294 85.2885598,148.034643 87.2436134,158.989575" id="Fill-8" fill="#FDCC99" mask="url(#mask-4)"></path>
                <path d="M172.772755,85.2103587 C162.924107,72.0258759 147.564968,63.3641975 131.258877,62.7271828 C131.255383,62.7271828 130.935655,62.7185745 130.411512,62.6944712 L130.428984,62.0660648 C130.428984,62.0660648 126.476945,62.2192927 122.395618,62.3776855 C118.312543,62.2192927 114.358757,62.0660648 114.358757,62.0660648 L114.377976,62.6944712 C113.85558,62.7185745 113.534105,62.7271828 113.534105,62.7271828 C97.2245204,63.3641975 81.8671285,72.0258759 72.0184803,85.2103587 C62.1628435,98.4086148 60.8524859,115.029534 61.6299647,130.948015 C62.2152578,142.977263 64.3764744,162.395882 64.9827332,174.423408 C74.8733129,210.888196 99.483577,217.115445 122.39387,217.115445 C145.307658,217.115445 170.737333,210.888196 179.808502,174.423408 C180.414761,162.395882 182.572483,142.977263 183.16127,130.948015 C183.938749,115.029534 182.630139,98.4086148 172.772755,85.2103587" id="Fill-9" fill="#FDCC99" mask="url(#mask-4)"></path>
                <path d="M98.2724571,153.004047 C98.2724571,157.449376 95.1904959,161.054535 91.3887115,161.054535 C87.5869271,161.054535 84.5049659,157.449376 84.5049659,153.004047 C84.5049659,148.558717 87.5869271,144.953558 91.3887115,144.953558 C95.1904959,144.953558 98.2724571,148.558717 98.2724571,153.004047" id="Fill-10" fill="#371E10" mask="url(#mask-4)"></path>
                <path d="M81.7633482,138.228749 C81.1955266,138.228749 80.6277049,138.023871 80.1839304,137.607229 C79.2631858,136.749842 79.2264958,135.320863 80.0983204,134.411825 C84.036382,130.326323 95.5570466,127.800646 102.318492,132.404368 C103.361537,133.113693 103.623608,134.523733 102.903785,135.548122 C102.182215,136.577675 100.751304,136.832481 99.7100068,136.123157 C94.7760734,132.764195 85.8831127,134.97653 83.4266289,137.526311 C82.9758658,137.992881 82.369607,138.228749 81.7633482,138.228749" id="Fill-11" fill="#371E10" mask="url(#mask-4)"></path>
                <path d="M161.482014,139.926823 C160.877503,139.926823 160.271244,139.694399 159.820481,139.227829 C156.306975,135.588237 147.92418,135.686371 142.897648,139.429263 C141.886052,140.181629 140.446406,139.983638 139.682904,138.988518 C138.919402,137.989954 139.120324,136.574749 140.13192,135.820661 C147.050609,130.66945 158.019176,130.80374 163.143548,136.106457 C164.01712,137.012051 163.983924,138.441029 163.064926,139.305303 C162.619405,139.721946 162.051583,139.926823 161.482014,139.926823" id="Fill-12" fill="#371E10" mask="url(#mask-4)"></path>
                <path d="M118.730635,180.486755 C118.674726,180.486755 118.620565,180.483312 118.562909,180.479868 C117.299724,180.38862 116.347531,179.309139 116.438382,178.062656 C116.735397,173.97371 117.19839,157.981197 117.19839,153.102009 C117.19839,151.850361 118.22571,150.838024 119.492389,150.838024 C120.759068,150.838024 121.786389,151.850361 121.786389,153.102009 C121.786389,158.158529 121.32689,174.125216 121.015898,178.38805 C120.928541,179.579439 119.922186,180.486755 118.730635,180.486755" id="Fill-13" fill="#CB9974" mask="url(#mask-4)"></path>
                <path d="M122.189105,197.10819 C116.708316,197.10819 111.234515,195.830718 107.944644,192.631871 C107.043118,191.752102 107.034382,190.31968 107.925425,189.434746 C108.818216,188.542925 110.266598,188.536038 111.171618,189.410642 C114.173211,192.334023 121.759308,193.399732 128.824756,191.889835 C135.544271,190.453969 140.345421,187.187978 141.994725,182.932031 C142.447235,181.761301 143.768075,181.175936 144.95788,181.623568 C146.138949,182.0712 146.734725,183.374498 146.282215,184.541784 C144.068584,190.255978 138.060157,194.546358 129.796168,196.311061 C127.416559,196.815508 124.801085,197.10819 122.189105,197.10819" id="Fill-14" fill="#B98562" mask="url(#mask-4)"></path>
                <path d="M144.232291,156.349923 C143.949254,156.349923 143.659228,156.299995 143.379685,156.188087 C142.20211,155.72496 141.630795,154.409611 142.102523,153.249211 C143.956243,148.683365 148.2944,145.895995 152.898123,146.309194 C156.998669,146.679351 160.183712,149.557969 161.013605,153.646915 C161.263447,154.871016 160.458013,156.060684 159.215794,156.306882 C157.971828,156.554801 156.764552,155.757672 156.51471,154.533571 C156.079672,152.391824 154.571887,151.000721 152.480556,150.814782 C150.504537,150.637451 147.712601,151.601581 146.363806,154.931274 C146.003895,155.814487 145.142553,156.349923 144.232291,156.349923" id="Fill-15" fill="#B98562" mask="url(#mask-4)"></path>
                <path d="M131.515183,210.619272 C131.515183,210.619272 128.115241,209.539791 127.59634,207.441085 C127.075691,205.340659 124.344906,204.839655 122.395093,204.839655 C120.445281,204.839655 117.71799,205.340659 117.197341,207.441085 C116.67844,209.539791 113.278498,210.619272 113.278498,210.619272 C77.9442671,216.144084 67.2377714,181.394071 67.2377714,181.394071 C76.6059552,224.244501 122.395093,221.923701 122.395093,221.923701 C122.395093,221.923701 168.185979,224.244501 177.55591,181.394071 C177.55591,181.394071 167.052083,217.115101 131.515183,210.619272" id="Fill-16" fill="#311A0E" mask="url(#mask-4)"></path>
                <path d="M64.7159444,147.970253 C65.4445033,132.814468 65.6366891,105.409062 78.9481758,105.409062 C88.8073069,105.409062 91.4839308,107.669604 121.428224,107.669604 C147.925403,107.669604 155.626812,104.653253 165.543599,104.653253 C176.17322,104.653253 178.807913,118.934434 179.012329,138.73354 C179.052513,142.815599 179.337297,146.897658 179.569667,150.969387 C179.707692,153.357331 179.880659,155.745276 180.002959,158.134942 C180.050132,159.104237 180.301721,161.703946 181.563158,161.457748 C182.976597,161.182282 183.137335,155.929494 183.2806,154.810414 C184.293944,146.911431 184.566498,138.811015 184.559509,130.860382 C184.540291,116.183219 188.78585,87.9169825 162.365545,70.30783 C146.118857,59.4734149 112.528275,58.3973766 93.8303446,64.5333777 C80.8071365,68.8048196 68.3203016,79.9336387 63.6781411,92.8977489 C58.5817234,107.134167 58.7127592,118.261264 60.390017,146.456913 C60.5717199,149.514583 60.9298843,152.577419 61.3526931,155.607543 C61.632236,157.623608 61.8908133,159.693045 62.3800135,161.666069 C63.4405296,165.977109 64.9238545,162.903944 64.8766816,160.219874 C64.8067959,156.127485 64.5220115,152.069529 64.7159444,147.970253" id="Fill-17" fill="#C1966C" mask="url(#mask-4)"></path>
                <path d="M106.554442,251.891972 L100.161643,234.494584 C99.9449976,233.898889 100.255989,233.239493 100.858754,233.024285 C101.468507,232.809077 102.130674,233.118976 102.345573,233.712949 L107.609716,248.03545 L121.32654,236.713805 C121.815741,236.305771 122.549541,236.36603 122.965361,236.854981 C123.37594,237.335325 123.311296,238.061866 122.818601,238.468178 L106.554442,251.891972 Z" id="Fill-18" fill="#B0ADB2" mask="url(#mask-4)"></path>
                <path d="M137.583187,251.885257 L121.327763,238.46835 C120.835069,238.062038 120.772172,237.335497 121.182751,236.855154 C121.598571,236.369645 122.332371,236.305944 122.819824,236.712256 L136.548878,248.045953 L141.875919,233.888731 C142.097806,233.293036 142.766962,232.993467 143.367979,233.212118 C143.970744,233.430769 144.276494,234.090165 144.05286,234.68586 L137.583187,251.885257 Z" id="Fill-19" fill="#B0ADB2" mask="url(#mask-4)"></path>
                <path d="M244.758738,41.3963148 C244.758738,64.2582562 225.950738,82.791941 202.750419,82.791941 C179.550099,82.791941 160.742099,64.2582562 160.742099,41.3963148 C160.742099,18.5343734 179.550099,0.000688664551 202.750419,0.000688664551 C225.950738,0.000688664551 244.758738,18.5343734 244.758738,41.3963148" id="Fill-20" fill="#173340" mask="url(#mask-4)"></path>
                <path d="M227.031521,46.9763915 C226.558045,46.9936081 225.897625,47.0091031 225.072973,47.0091031 C221.131417,47.0091031 212.935567,46.6113993 203.784029,43.892896 C205.159031,31.9428444 212.240204,26.9586347 213.982106,25.9101429 C228.876505,30.0696768 227.630791,43.4865839 227.031521,46.9763915 M187.663135,49.6793999 C182.91964,49.1250249 179.526688,45.8779715 178.345619,44.3439713 C179.531929,43.3092528 185.012718,41.615138 189.946652,40.5253263 C193.378042,42.4432571 196.874076,43.9531541 200.287995,45.1256055 C195.963814,48.6068048 191.707773,50.1373618 187.663135,49.6793999 M208.913642,25.1508902 C209.586293,25.1508902 210.278161,25.2059834 210.977019,25.2920665 C207.924759,27.7213307 202.866778,33.1876055 201.587869,43.2042314 C198.275285,42.0972032 194.875344,40.6768325 191.534805,38.8518715 C192.90806,35.7201694 198.334688,25.1508902 208.913642,25.1508902 M214.197004,23.6306632 C214.19351,23.6289416 214.188269,23.6272199 214.183027,23.6272199 C214.167303,23.6220549 214.153326,23.6168899 214.137601,23.6134466 C212.360756,23.148598 210.601383,22.9144521 208.913642,22.9144521 C196.283542,22.9144521 190.439346,35.5135701 189.270507,38.3801362 C184.47984,39.4372363 176.995077,41.4240336 176.077826,43.6776883 C175.852445,44.2268983 175.913595,44.8036548 176.249046,45.2977717 C177.608324,47.2880122 181.687904,51.2340601 187.395822,51.900343 C187.974127,51.9657662 188.548937,52.0001994 189.130736,52.0001994 C193.633125,52.0001994 198.226365,49.9548657 202.814364,45.941673 C212.383469,48.8306208 220.965439,49.2455412 225.072973,49.2455412 C226.973865,49.2455412 228.062336,49.1594581 228.062336,49.1594581 C228.551536,49.1233032 228.962115,48.7772493 229.077426,48.3089574 C229.122852,48.1109663 233.604275,28.7405542 214.197004,23.6306632" id="Fill-21" fill="#FBFCF4" mask="url(#mask-4)"></path>
                <path d="M213.528722,23.2353698 L214.98584,23.5986403 C215.080185,23.6210219 215.172784,23.6330736 215.263636,23.6330736 C215.770307,23.6330736 216.2333,23.2939063 216.362589,22.7877378 C216.518085,22.1885997 216.14769,21.5825749 215.541431,21.4310687 L214.082566,21.0695198 C213.471066,20.9059619 212.857819,21.2830058 212.705817,21.8787006 C212.552069,22.4778388 212.920716,23.0838636 213.528722,23.2353698" id="Fill-22" fill="#FBFCF4" mask="url(#mask-4)"></path>
            </g>
        </g>
    </g>
</svg>